<mxfile host="Electron" agent="Mozilla/5.0 (Macintosh; Intel Mac OS X 10_15_7) AppleWebKit/537.36 (KHTML, like Gecko) draw.io/26.2.15 Chrome/134.0.6998.205 Electron/35.2.1 Safari/537.36" version="26.2.15">
  <diagram name="Page-1" id="zQ-Ru-SVvh0AW4mATbjJ">
    <mxGraphModel dx="1234" dy="917" grid="1" gridSize="10" guides="1" tooltips="1" connect="1" arrows="1" fold="1" page="1" pageScale="1" pageWidth="1169" pageHeight="827" math="0" shadow="0">
      <root>
        <mxCell id="0" />
        <mxCell id="1" parent="0" />
        <mxCell id="Z1luwOqgJpf1QfRJgD0q-25" value="0x000000000000" style="text;html=1;align=center;verticalAlign=middle;resizable=0;points=[];autosize=1;strokeColor=none;fillColor=none;" vertex="1" parent="1">
          <mxGeometry x="61" y="639" width="120" height="30" as="geometry" />
        </mxCell>
        <mxCell id="Z1luwOqgJpf1QfRJgD0q-2" value="" style="rounded=0;whiteSpace=wrap;html=1;fillColor=#f8cecc;strokeColor=#b85450;shadow=1;" vertex="1" parent="1">
          <mxGeometry x="214.33333333333334" y="501.1052631578948" width="46.66666666666667" height="109.47368421052632" as="geometry" />
        </mxCell>
        <mxCell id="Z1luwOqgJpf1QfRJgD0q-3" value="" style="rounded=0;whiteSpace=wrap;html=1;fillColor=#60a917;fontColor=#ffffff;strokeColor=#2D7600;" vertex="1" parent="1">
          <mxGeometry x="261" y="501.1052631578948" width="46.66666666666667" height="109.47368421052632" as="geometry" />
        </mxCell>
        <mxCell id="Z1luwOqgJpf1QfRJgD0q-4" value="" style="rounded=0;whiteSpace=wrap;html=1;fillColor=#60a917;fontColor=#ffffff;strokeColor=#2D7600;" vertex="1" parent="1">
          <mxGeometry x="307.6666666666667" y="501.1052631578948" width="46.66666666666667" height="109.47368421052632" as="geometry" />
        </mxCell>
        <mxCell id="Z1luwOqgJpf1QfRJgD0q-9" value="" style="rounded=0;whiteSpace=wrap;html=1;fillColor=#60a917;strokeColor=#2D7600;shadow=0;fontColor=#ffffff;" vertex="1" parent="1">
          <mxGeometry x="354.33333333333337" y="501.1052631578948" width="46.66666666666667" height="109.47368421052632" as="geometry" />
        </mxCell>
        <mxCell id="Z1luwOqgJpf1QfRJgD0q-10" value="" style="rounded=0;whiteSpace=wrap;html=1;fillColor=#e1d5e7;strokeColor=#9673a6;shadow=1;" vertex="1" parent="1">
          <mxGeometry x="401" y="501.1052631578948" width="46.66666666666667" height="109.47368421052632" as="geometry" />
        </mxCell>
        <mxCell id="Z1luwOqgJpf1QfRJgD0q-11" value="" style="rounded=0;whiteSpace=wrap;html=1;fillColor=#60a917;fontColor=#ffffff;strokeColor=#2D7600;" vertex="1" parent="1">
          <mxGeometry x="447.6666666666667" y="501.1052631578948" width="46.66666666666667" height="109.47368421052632" as="geometry" />
        </mxCell>
        <mxCell id="Z1luwOqgJpf1QfRJgD0q-12" value="" style="rounded=0;whiteSpace=wrap;html=1;fillColor=#dae8fc;strokeColor=#6c8ebf;shadow=1;" vertex="1" parent="1">
          <mxGeometry x="494.33333333333337" y="501.1052631578948" width="46.66666666666667" height="109.47368421052632" as="geometry" />
        </mxCell>
        <mxCell id="Z1luwOqgJpf1QfRJgD0q-13" value="" style="rounded=0;whiteSpace=wrap;html=1;fillColor=#60a917;fontColor=#ffffff;strokeColor=#2D7600;" vertex="1" parent="1">
          <mxGeometry x="541" y="501.1052631578948" width="46.66666666666667" height="109.47368421052632" as="geometry" />
        </mxCell>
        <mxCell id="Z1luwOqgJpf1QfRJgD0q-14" value="" style="rounded=0;whiteSpace=wrap;html=1;fillColor=#60a917;strokeColor=#2D7600;fontColor=#ffffff;" vertex="1" parent="1">
          <mxGeometry x="587.6666666666667" y="501.1052631578948" width="46.66666666666667" height="109.47368421052632" as="geometry" />
        </mxCell>
        <mxCell id="Z1luwOqgJpf1QfRJgD0q-15" style="edgeStyle=orthogonalEdgeStyle;rounded=0;orthogonalLoop=1;jettySize=auto;html=1;exitX=1;exitY=1;exitDx=0;exitDy=0;endArrow=none;startFill=0;" edge="1" parent="1" source="Z1luwOqgJpf1QfRJgD0q-16">
          <mxGeometry relative="1" as="geometry">
            <mxPoint x="681.1505376344085" y="637.9473684210528" as="targetPoint" />
          </mxGeometry>
        </mxCell>
        <mxCell id="Z1luwOqgJpf1QfRJgD0q-16" value="" style="rounded=0;whiteSpace=wrap;html=1;fillColor=#60a917;fontColor=#ffffff;strokeColor=#2D7600;" vertex="1" parent="1">
          <mxGeometry x="634.3333333333334" y="501.1052631578948" width="46.66666666666667" height="109.47368421052632" as="geometry" />
        </mxCell>
        <mxCell id="Z1luwOqgJpf1QfRJgD0q-17" value="" style="rounded=0;whiteSpace=wrap;html=1;fillColor=#60a917;strokeColor=#2D7600;fontColor=#ffffff;" vertex="1" parent="1">
          <mxGeometry x="121" y="501.1052631578948" width="46.66666666666667" height="109.47368421052632" as="geometry" />
        </mxCell>
        <mxCell id="Z1luwOqgJpf1QfRJgD0q-18" value="" style="rounded=0;whiteSpace=wrap;html=1;fillColor=#60a917;fontColor=#ffffff;strokeColor=#2D7600;" vertex="1" parent="1">
          <mxGeometry x="167.66666666666669" y="501.1052631578948" width="46.66666666666667" height="109.47368421052632" as="geometry" />
        </mxCell>
        <mxCell id="Z1luwOqgJpf1QfRJgD0q-20" value="" style="whiteSpace=wrap;html=1;fillColor=#f8cecc;strokeColor=#b85450;shadow=1;" vertex="1" parent="1">
          <mxGeometry x="214.33333333333334" y="419" width="46.66666666666667" height="27.36842105263158" as="geometry" />
        </mxCell>
        <mxCell id="Z1luwOqgJpf1QfRJgD0q-22" value="" style="whiteSpace=wrap;html=1;fillColor=#e1d5e7;strokeColor=#9673a6;shadow=1;" vertex="1" parent="1">
          <mxGeometry x="401" y="419" width="46.67" height="27.37" as="geometry" />
        </mxCell>
        <mxCell id="Z1luwOqgJpf1QfRJgD0q-23" value="" style="whiteSpace=wrap;html=1;fillColor=#dae8fc;strokeColor=#6c8ebf;shadow=1;" vertex="1" parent="1">
          <mxGeometry x="494.33333333333337" y="419" width="46.66666666666667" height="27.36842105263158" as="geometry" />
        </mxCell>
        <mxCell id="Z1luwOqgJpf1QfRJgD0q-26" style="edgeStyle=orthogonalEdgeStyle;rounded=0;orthogonalLoop=1;jettySize=auto;html=1;exitX=0;exitY=1;exitDx=0;exitDy=0;entryX=0.496;entryY=-0.056;entryDx=0;entryDy=0;entryPerimeter=0;endArrow=none;startFill=0;" edge="1" parent="1" source="Z1luwOqgJpf1QfRJgD0q-17" target="Z1luwOqgJpf1QfRJgD0q-25">
          <mxGeometry relative="1" as="geometry" />
        </mxCell>
        <mxCell id="Z1luwOqgJpf1QfRJgD0q-27" value="0xFFFFFFFFFFFF" style="text;html=1;align=center;verticalAlign=middle;resizable=0;points=[];autosize=1;strokeColor=none;fillColor=none;" vertex="1" parent="1">
          <mxGeometry x="611" y="637.9473684210526" width="120" height="30" as="geometry" />
        </mxCell>
        <mxCell id="Z1luwOqgJpf1QfRJgD0q-60" value="&lt;font style=&quot;font-size: 17px;&quot;&gt;./getpid.so&lt;/font&gt;" style="whiteSpace=wrap;html=1;shape=mxgraph.basic.document;fillColor=#dae8fc;strokeColor=#6c8ebf;" vertex="1" parent="1">
          <mxGeometry x="800" y="430.00000000000006" width="100" height="100" as="geometry" />
        </mxCell>
        <mxCell id="Z1luwOqgJpf1QfRJgD0q-61" value="&lt;font style=&quot;font-size: 17px;&quot;&gt;./printf.so&lt;/font&gt;" style="whiteSpace=wrap;html=1;shape=mxgraph.basic.document;fillColor=#e1d5e7;strokeColor=#9673a6;" vertex="1" parent="1">
          <mxGeometry x="800" y="314" width="100" height="100" as="geometry" />
        </mxCell>
        <mxCell id="Z1luwOqgJpf1QfRJgD0q-62" value="&lt;font style=&quot;font-size: 17px;&quot;&gt;./linked&lt;/font&gt;" style="whiteSpace=wrap;html=1;shape=mxgraph.basic.document;fillColor=#f8cecc;strokeColor=#b85450;" vertex="1" parent="1">
          <mxGeometry x="800" y="200" width="100" height="100" as="geometry" />
        </mxCell>
        <mxCell id="Z1luwOqgJpf1QfRJgD0q-84" value="&lt;h1 style=&quot;margin-top: 0px;&quot;&gt;A Single Seccomp Filter&lt;/h1&gt;" style="text;html=1;whiteSpace=wrap;overflow=hidden;rounded=0;" vertex="1" parent="1">
          <mxGeometry x="121" y="59" width="630" height="40" as="geometry" />
        </mxCell>
        <mxCell id="Z1luwOqgJpf1QfRJgD0q-85" value="0x000000000000" style="text;html=1;align=center;verticalAlign=middle;resizable=0;points=[];autosize=1;strokeColor=none;fillColor=none;" vertex="1" parent="1">
          <mxGeometry x="61" y="339" width="120" height="30" as="geometry" />
        </mxCell>
        <mxCell id="Z1luwOqgJpf1QfRJgD0q-86" value="" style="rounded=0;whiteSpace=wrap;html=1;fillColor=#f8cecc;strokeColor=#b85450;shadow=1;" vertex="1" parent="1">
          <mxGeometry x="214.33333333333334" y="201.10526315789474" width="46.66666666666667" height="109.47368421052632" as="geometry" />
        </mxCell>
        <mxCell id="Z1luwOqgJpf1QfRJgD0q-87" value="" style="rounded=0;whiteSpace=wrap;html=1;fillColor=#60a917;fontColor=#ffffff;strokeColor=#2D7600;" vertex="1" parent="1">
          <mxGeometry x="261" y="201.10526315789474" width="46.66666666666667" height="109.47368421052632" as="geometry" />
        </mxCell>
        <mxCell id="Z1luwOqgJpf1QfRJgD0q-88" value="" style="rounded=0;whiteSpace=wrap;html=1;fillColor=#60a917;fontColor=#ffffff;strokeColor=#2D7600;" vertex="1" parent="1">
          <mxGeometry x="307.6666666666667" y="201.10526315789474" width="46.66666666666667" height="109.47368421052632" as="geometry" />
        </mxCell>
        <mxCell id="Z1luwOqgJpf1QfRJgD0q-89" value="" style="rounded=0;whiteSpace=wrap;html=1;fillColor=#60a917;strokeColor=#2D7600;shadow=0;fontColor=#ffffff;" vertex="1" parent="1">
          <mxGeometry x="354.33333333333337" y="201.10526315789474" width="46.66666666666667" height="109.47368421052632" as="geometry" />
        </mxCell>
        <mxCell id="Z1luwOqgJpf1QfRJgD0q-90" value="" style="rounded=0;whiteSpace=wrap;html=1;fillColor=#e1d5e7;strokeColor=#9673a6;shadow=1;" vertex="1" parent="1">
          <mxGeometry x="401" y="201.10526315789474" width="46.66666666666667" height="109.47368421052632" as="geometry" />
        </mxCell>
        <mxCell id="Z1luwOqgJpf1QfRJgD0q-91" value="" style="rounded=0;whiteSpace=wrap;html=1;fillColor=#60a917;fontColor=#ffffff;strokeColor=#2D7600;" vertex="1" parent="1">
          <mxGeometry x="447.6666666666667" y="201.10526315789474" width="46.66666666666667" height="109.47368421052632" as="geometry" />
        </mxCell>
        <mxCell id="Z1luwOqgJpf1QfRJgD0q-92" value="" style="rounded=0;whiteSpace=wrap;html=1;fillColor=#dae8fc;strokeColor=#6c8ebf;shadow=1;" vertex="1" parent="1">
          <mxGeometry x="494.33333333333337" y="201.10526315789474" width="46.66666666666667" height="109.47368421052632" as="geometry" />
        </mxCell>
        <mxCell id="Z1luwOqgJpf1QfRJgD0q-93" value="" style="rounded=0;whiteSpace=wrap;html=1;fillColor=#60a917;fontColor=#ffffff;strokeColor=#2D7600;" vertex="1" parent="1">
          <mxGeometry x="541" y="201.10526315789474" width="46.66666666666667" height="109.47368421052632" as="geometry" />
        </mxCell>
        <mxCell id="Z1luwOqgJpf1QfRJgD0q-94" value="" style="rounded=0;whiteSpace=wrap;html=1;fillColor=#60a917;strokeColor=#2D7600;fontColor=#ffffff;" vertex="1" parent="1">
          <mxGeometry x="587.6666666666667" y="201.10526315789474" width="46.66666666666667" height="109.47368421052632" as="geometry" />
        </mxCell>
        <mxCell id="Z1luwOqgJpf1QfRJgD0q-95" style="edgeStyle=orthogonalEdgeStyle;rounded=0;orthogonalLoop=1;jettySize=auto;html=1;exitX=1;exitY=1;exitDx=0;exitDy=0;endArrow=none;startFill=0;" edge="1" parent="1" source="Z1luwOqgJpf1QfRJgD0q-96">
          <mxGeometry relative="1" as="geometry">
            <mxPoint x="681.1505376344085" y="337.94736842105283" as="targetPoint" />
          </mxGeometry>
        </mxCell>
        <mxCell id="Z1luwOqgJpf1QfRJgD0q-96" value="" style="rounded=0;whiteSpace=wrap;html=1;fillColor=#60a917;fontColor=#ffffff;strokeColor=#2D7600;" vertex="1" parent="1">
          <mxGeometry x="634.3333333333334" y="201.10526315789474" width="46.66666666666667" height="109.47368421052632" as="geometry" />
        </mxCell>
        <mxCell id="Z1luwOqgJpf1QfRJgD0q-97" value="" style="rounded=0;whiteSpace=wrap;html=1;fillColor=#60a917;strokeColor=#2D7600;fontColor=#ffffff;" vertex="1" parent="1">
          <mxGeometry x="121" y="201.10526315789474" width="46.66666666666667" height="109.47368421052632" as="geometry" />
        </mxCell>
        <mxCell id="Z1luwOqgJpf1QfRJgD0q-98" value="" style="rounded=0;whiteSpace=wrap;html=1;fillColor=#60a917;fontColor=#ffffff;strokeColor=#2D7600;" vertex="1" parent="1">
          <mxGeometry x="167.66666666666669" y="201.10526315789474" width="46.66666666666667" height="109.47368421052632" as="geometry" />
        </mxCell>
        <mxCell id="Z1luwOqgJpf1QfRJgD0q-103" style="edgeStyle=orthogonalEdgeStyle;rounded=0;orthogonalLoop=1;jettySize=auto;html=1;exitX=0;exitY=1;exitDx=0;exitDy=0;entryX=0.496;entryY=-0.056;entryDx=0;entryDy=0;entryPerimeter=0;endArrow=none;startFill=0;" edge="1" parent="1" source="Z1luwOqgJpf1QfRJgD0q-97" target="Z1luwOqgJpf1QfRJgD0q-85">
          <mxGeometry relative="1" as="geometry" />
        </mxCell>
        <mxCell id="Z1luwOqgJpf1QfRJgD0q-104" value="0xFFFFFFFFFFFF" style="text;html=1;align=center;verticalAlign=middle;resizable=0;points=[];autosize=1;strokeColor=none;fillColor=none;" vertex="1" parent="1">
          <mxGeometry x="611" y="337.9473684210526" width="120" height="30" as="geometry" />
        </mxCell>
        <mxCell id="Z1luwOqgJpf1QfRJgD0q-107" value="Single filter, accounts for entire application" style="whiteSpace=wrap;html=1;fillColor=#f5f5f5;strokeColor=#666666;shadow=1;fontColor=#333333;" vertex="1" parent="1">
          <mxGeometry x="121" y="140" width="559" height="27.37" as="geometry" />
        </mxCell>
        <mxCell id="Z1luwOqgJpf1QfRJgD0q-108" value="" style="group" vertex="1" connectable="0" parent="1">
          <mxGeometry x="121" y="359" width="630" height="86" as="geometry" />
        </mxCell>
        <mxCell id="Z1luwOqgJpf1QfRJgD0q-24" value="&lt;h1 style=&quot;margin-top: 0px;&quot;&gt;&lt;font face=&quot;Courier New&quot;&gt;addrfilter&lt;/font&gt; Fine-Grained Filters&lt;/h1&gt;" style="text;html=1;whiteSpace=wrap;overflow=hidden;rounded=0;" vertex="1" parent="Z1luwOqgJpf1QfRJgD0q-108">
          <mxGeometry width="630" height="40" as="geometry" />
        </mxCell>
        <mxCell id="Z1luwOqgJpf1QfRJgD0q-19" value="" style="endArrow=none;html=1;rounded=0;fillColor=#e51400;strokeColor=#B20000;strokeWidth=2;" edge="1" parent="Z1luwOqgJpf1QfRJgD0q-108">
          <mxGeometry width="50" height="50" relative="1" as="geometry">
            <mxPoint y="85.9315789473684" as="sourcePoint" />
            <mxPoint x="560" y="86" as="targetPoint" />
          </mxGeometry>
        </mxCell>
      </root>
    </mxGraphModel>
  </diagram>
</mxfile>
